<svg xmlns="http://www.w3.org/2000/svg" viewBox="0 0 512 512">
  <defs>
    <linearGradient id="bg" x1="0%" y1="0%" x2="100%" y2="100%">
      <stop offset="0%" stop-color="#8b5cf6" />
      <stop offset="100%" stop-color="#3b82f6" />
    </linearGradient>
  </defs>
  <rect width="512" height="512" rx="112" fill="url(#bg)" />
  <g transform="translate(128, 128) scale(10.6)" fill="white">
    <path d="M12 2a2 2 0 0 1 2 2c0 .74-.4 1.39-1 1.73V7h1a7 7 0 0 1 7 7h-1a6 6 0 0 0-6-6h-1v1.27a2 2 0 1 1-2 0V7H9a6 6 0 0 0-6 6H2a7 7 0 0 1 7-7h1V5.73A2 2 0 0 1 12 2Z" />
    <path d="M12 6a2 2 0 1 1 0-4 2 2 0 0 1 0 4Z" />
    <path d="M12 22a2 2 0 1 1 0-4 2 2 0 0 1 0 4Z" />
  </g>
</svg>
